<?xml version="1.0" encoding="UTF-8"?>
<svg version="1.1" xmlns="http://www.w3.org/2000/svg" width="640" height="640">
<path d="M0 0 C4.10085212 0.02278873 8.20066547 0.00923004 12.3014822 -0.01376534 C31.35887936 -0.10433804 49.66911202 0.72945886 68.42333984 4.52148438 C69.13020935 4.65977661 69.83707886 4.79806885 70.56536865 4.94055176 C74.19220943 5.65818508 77.77871891 6.48301791 81.36083984 7.39648438 C82.38693359 7.65204102 83.41302734 7.90759766 84.47021484 8.17089844 C107.59437761 14.03833077 130.34374146 22.15422106 151.40527344 33.44238281 C153.61689888 34.62498437 155.84253364 35.77897198 158.06787109 36.93554688 C179.76064116 48.37644583 200.01179131 62.57365805 217.98583984 79.26757812 C220.0517817 81.17791219 222.15284563 83.01478407 224.29833984 84.83398438 C232.96578012 92.37555097 241.03002965 100.73687293 248.42333984 109.52148438 C249.22900391 110.43800781 250.03466797 111.35453125 250.86474609 112.29882812 C269.01998116 133.07681512 283.2204016 156.8669983 295.42333984 181.52148438 C295.86419922 182.4011084 296.30505859 183.28073242 296.75927734 184.18701172 C308.83380824 208.50529989 316.55808416 234.86650369 321.42333984 261.52148438 C321.63216797 262.61541504 321.84099609 263.7093457 322.05615234 264.83642578 C325.41830982 283.14475638 325.81276871 301.32303988 325.86083984 319.89648438 C325.86710388 321.028815 325.87336792 322.16114563 325.87982178 323.32778931 C325.95124899 343.75430694 324.39047555 363.99873518 320.17333984 384.02148438 C319.85755981 385.5452771 319.85755981 385.5452771 319.53540039 387.09985352 C311.80226887 423.29447087 298.22267727 458.1826558 278.42333984 489.52148438 C277.77107422 490.55789063 277.11880859 491.59429687 276.44677734 492.66210938 C263.26262075 512.95377426 247.61213326 531.52082882 230.52197266 548.6081543 C229.05127575 550.08104409 227.5888045 551.56178703 226.12646484 553.04296875 C219.89591292 559.3109418 213.3779355 565.05906505 206.42333984 570.52148438 C205.34318604 571.38253784 205.34318604 571.38253784 204.24121094 572.26098633 C189.21435133 584.17714385 173.3510406 594.51691381 156.42333984 603.52148438 C155.6236377 603.94929199 154.82393555 604.37709961 154 604.81787109 C120.73392058 622.45772264 85.45469893 632.53207161 48.42333984 638.52148438 C48.42333984 638.85148438 48.42333984 639.18148437 48.42333984 639.52148438 C44.25218382 640.53053204 40.22538236 640.66349113 35.95849609 640.65087891 C35.22452606 640.65263123 34.49055603 640.65438354 33.73434448 640.65618896 C31.31815192 640.66057533 28.90203309 640.65768083 26.48583984 640.65429688 C24.80102525 640.65497084 23.11621075 640.65594164 21.43139648 640.65719604 C17.90428744 640.65866866 14.37720375 640.65653246 10.85009766 640.65185547 C6.33419272 640.64615845 1.81834722 640.64943978 -2.69755554 640.65542793 C-6.17541958 640.6590453 -9.65326957 640.65788954 -13.13113403 640.65530014 C-14.79607144 640.65463413 -16.46101014 640.6554479 -18.12594604 640.65777969 C-20.45460374 640.6603255 -22.78316581 640.65643845 -25.11181641 640.65087891 C-25.79664093 640.65290314 -26.48146545 640.65492737 -27.18704224 640.65701294 C-30.77553038 640.64118046 -34.08598405 640.3659166 -37.57666016 639.52148438 C-37.57666016 639.19148437 -37.57666016 638.86148438 -37.57666016 638.52148438 C-38.28870605 638.40667725 -39.00075195 638.29187012 -39.734375 638.17358398 C-110.00062182 626.67230402 -170.2271794 596.67150529 -221.57666016 547.52148438 C-222.36266602 546.7705249 -222.36266602 546.7705249 -223.16455078 546.00439453 C-228.97976037 540.41592476 -234.32177491 534.62569738 -239.34228516 528.31445312 C-241.63139887 525.45306099 -244.00516041 522.67908281 -246.38916016 519.89648438 C-292.31329935 464.67394914 -315.60594912 393.08791272 -315.02618408 321.8079834 C-315.01009446 318.99924213 -315.02031019 316.19082969 -315.0299015 313.38207817 C-315.07492486 296.9123083 -314.37961088 280.78419728 -311.57666016 264.52148438 C-311.4586203 263.82969086 -311.34058044 263.13789734 -311.21896362 262.42514038 C-310.52033057 258.43369972 -309.70634059 254.47656874 -308.82666016 250.52148438 C-308.56844482 249.34980713 -308.31022949 248.17812988 -308.04418945 246.97094727 C-302.01570232 220.33474761 -292.54515646 194.58121482 -279.57666016 170.52148438 C-279.20750488 169.8232959 -278.83834961 169.12510742 -278.45800781 168.40576172 C-269.8740898 152.20517799 -259.90425419 136.94344557 -248.57666016 122.52148438 C-248.14885254 121.9583252 -247.72104492 121.39516602 -247.28027344 120.81494141 C-239.11979726 110.10377785 -229.8858881 100.53607003 -220.38916016 91.02148438 C-219.79042084 90.41925049 -219.19168152 89.8170166 -218.57479858 89.1965332 C-211.23667681 81.83469351 -203.79068698 74.90971479 -195.57666016 68.52148438 C-194.54714233 67.7108252 -194.54714233 67.7108252 -193.49682617 66.88378906 C-179.92020812 56.29371243 -165.57127125 46.8289154 -150.46679688 38.55908203 C-149.14973798 37.8360776 -147.83653045 37.10603171 -146.52636719 36.37060547 C-101.45298409 11.12422373 -51.33170619 -0.28786334 0 0 Z " fill="#0081CF" transform="translate(314.57666015625,-0.521484375)"/>
<path d="M0 0 C0.95704834 0.05003174 1.91409668 0.10006348 2.90014648 0.15161133 C14.19776644 0.81668463 25.45390553 1.97441661 36.71484375 3.08056641 C54.29927124 4.80320581 71.8975261 6.35070401 89.5 7.875 C91.01101763 8.00603346 92.52203447 8.13707596 94.03305054 8.26812744 C113.38566327 9.94560443 132.74147785 11.58054803 152.10137939 13.171875 C169.2140835 14.58096225 186.31282724 16.12841352 203.4112854 17.70004272 C218.91452025 19.12380782 234.42069201 20.48304614 249.9375 21.75 C271.42764478 23.50513407 292.90100315 25.43433691 314.375 27.375 C335.3699705 29.2722166 356.36384821 31.16403212 377.375 32.875 C391.42769993 34.01941814 405.47334398 35.23087188 419.515625 36.49609375 C420.72943848 36.60542299 420.72943848 36.60542299 421.96777344 36.71696091 C429.53760689 37.39913021 437.10726615 38.08320836 444.67651367 38.77185059 C461.55894446 40.30770862 478.44068177 41.83005378 495.34072113 43.16067696 C497.48563686 43.32966857 499.63043585 43.50007372 501.77520752 43.67088318 C508.34154035 44.19285342 514.90850268 44.70208323 521.47753906 45.18920898 C523.78714938 45.37042179 526.09672217 45.55211385 528.40625 45.734375 C529.43993713 45.80602371 530.47362427 45.87767242 531.53863525 45.95149231 C538.12030384 46.4876426 542.70300364 47.47497372 547.75439453 52.01220703 C549.98830663 55.95840367 549.67173953 59.30983757 549.3046875 63.6796875 C549.24481659 64.58524384 549.18494568 65.49080017 549.1232605 66.42379761 C548.90279374 69.57710177 548.64273454 72.72536399 548.375 75.875 C548.27707153 77.05630493 548.17914307 78.23760986 548.07824707 79.45471191 C547.33950938 88.25069156 546.53141014 97.03944821 545.70427704 105.82746887 C545.15222972 111.69861327 544.6064292 117.57034432 544.06134415 123.44213867 C543.92702491 124.88865116 543.79249176 126.3351438 543.65774155 127.78161621 C542.8525519 136.43541267 542.09583845 145.09016131 541.453125 153.7578125 C541.38942719 154.59470612 541.32572937 155.43159973 541.26010132 156.29385376 C540.98251913 159.94643428 540.71964183 163.59856647 540.48876953 167.25439453 C539.65174647 178.39753979 539.65174647 178.39753979 535.375 182.875 C532.30825 184.7828559 530.18701834 185.08089861 526.609375 184.8515625 C525.71992187 184.8 524.83046875 184.7484375 523.9140625 184.6953125 C522.53347656 184.59863281 522.53347656 184.59863281 521.125 184.5 C520.18914063 184.44328125 519.25328125 184.3865625 518.2890625 184.328125 C515.98356552 184.18697212 513.67921072 184.0355965 511.375 183.875 C511.38166183 184.62002274 511.38832367 185.36504547 511.39518738 186.13264465 C511.45528033 193.15128086 511.50096502 200.16982807 511.53043652 207.18864918 C511.5460975 210.79718303 511.56734315 214.40550444 511.60131836 218.01391602 C511.63389717 221.49578122 511.65184975 224.97744201 511.65963173 228.45944786 C511.66787856 230.43542097 511.69130038 232.41131175 511.71488953 234.38716125 C511.71511612 235.58817978 511.71534271 236.7891983 511.71557617 238.02661133 C511.72223801 239.08584305 511.72889984 240.14507477 511.73576355 241.23640442 C511.33010951 244.20332545 510.71137946 245.08251967 508.375 246.875 C508.53667664 246.38209473 508.69835327 245.88918945 508.8649292 245.38134766 C509.58289765 241.85344812 509.53089308 238.35826576 509.53613281 234.7734375 C509.54109772 233.95997864 509.54606262 233.14651978 509.55117798 232.30841064 C509.5657625 229.62226512 509.57259407 226.93617858 509.578125 224.25 C509.58387785 222.38199868 509.58963557 220.51399738 509.59539795 218.64599609 C509.60589621 214.73209356 509.61174711 210.8182115 509.61523438 206.90429688 C509.62072813 201.88707851 509.64477983 196.8701303 509.67320633 191.85299683 C509.69181661 187.99600426 509.69703737 184.13907713 509.69857025 180.28204346 C509.70159905 178.43205279 509.70963521 176.58206333 509.72275543 174.7321167 C509.73978846 172.1467213 509.73794297 169.56199106 509.73144531 166.9765625 C509.7406601 166.21176575 509.74987488 165.44696899 509.7593689 164.65899658 C509.73441064 161.49277279 509.57201925 159.23572297 508.04022217 156.43115234 C504.51041228 153.13254028 500.1337348 153.70463536 495.59887695 153.66967773 C494.80839966 153.65977814 494.01792236 153.64987854 493.20349121 153.63967896 C490.59011838 153.60808607 487.97672737 153.58331526 485.36328125 153.55859375 C483.55152412 153.53802231 481.73977177 153.51702579 479.92802429 153.49562073 C475.15888336 153.44041965 470.38969926 153.39100169 465.6204834 153.34277344 C460.75411129 153.2925441 455.8878019 153.23686551 451.02148438 153.18164062 C441.47270982 153.07408306 431.92388082 152.97263272 422.375 152.875 C422.95419441 151.94120262 422.95419441 151.94120262 423.54508972 150.98854065 C428.04232428 143.3175249 430.3623446 135.68727816 432.42578125 127.08984375 C432.77213248 125.69753164 433.11991282 124.30557434 433.46903992 122.91395569 C434.37459673 119.28978458 435.26232645 115.66149543 436.14569092 112.03186035 C437.22778607 107.59937821 438.32999921 103.1718638 439.43046093 98.7439127 C440.28477801 95.305582 441.13570445 91.86653976 441.97615051 88.42478943 C442.27704086 87.19913773 442.57793121 85.97348602 442.88793945 84.71069336 C443.15185989 83.6291246 443.41578033 82.54755585 443.68769836 81.43321228 C444.375 78.875 444.375 78.875 445.375 76.875 C440.425 76.545 435.475 76.215 430.375 75.875 C429.97535034 78.20316772 429.97535034 78.20316772 429.56762695 80.57836914 C427.72604247 90.68615554 425.0604016 100.60711034 422.51733398 110.55639648 C421.87810825 113.07096767 421.24698395 115.58761154 420.6237793 118.10620117 C419.71896074 121.7618011 418.7900544 125.41050601 417.85546875 129.05859375 C417.58131638 130.18462509 417.307164 131.31065643 417.02470398 132.47080994 C414.99765291 140.21938034 414.99765291 140.21938034 411.79736328 143.58911133 C408.05502564 145.57569592 405.54902988 145.15798508 401.375 144.875 C401.230625 145.82375 401.08625 146.7725 400.9375 147.75 C400.375 150.875 400.375 150.875 399.375 152.875 C398.53897462 152.87635653 397.70294923 152.87771306 396.84158975 152.87911069 C347.32308491 152.95971117 297.80460828 153.05064533 248.28614761 153.15505161 C242.34416693 153.16757091 236.40218606 153.18000362 230.46020508 153.19238281 C228.68574723 153.1960818 228.68574723 153.1960818 226.87544175 153.19985552 C207.70557635 153.23960992 188.53570504 153.27234538 169.36582241 153.30249982 C149.7046947 153.33358273 130.04359215 153.37217853 110.38249272 153.41779006 C98.24459275 153.44571057 86.10671125 153.46772813 73.96878775 153.48226251 C65.65226083 153.49278163 57.33576962 153.51057955 49.01926956 153.53416704 C44.21673306 153.54757112 39.41424674 153.55770299 34.61169052 153.55921364 C30.21785541 153.56066636 25.82414127 153.57122657 21.43034329 153.58913441 C19.83807788 153.59399775 18.24579791 153.59547372 16.65352658 153.59327881 C14.49377982 153.59078968 12.33442028 153.6004893 10.1747179 153.61328697 C8.9736625 153.61556529 7.77260709 153.61784362 6.53515607 153.62019098 C3.40959378 153.87221064 1.19235364 154.53945954 -1.625 155.875 C0.44906157 153.42584275 1.66781753 152.01915192 4.86621475 151.36719131 C6.27655802 151.36166056 6.27655802 151.36166056 7.71539307 151.35601807 C8.79790344 151.34210526 9.88041382 151.32819244 10.99572754 151.31385803 C12.76949768 151.32140358 12.76949768 151.32140358 14.57910156 151.32910156 C15.8281427 151.31876389 17.07718384 151.30842621 18.36407471 151.29777527 C21.78547744 151.2733363 25.20606659 151.26651067 28.62749958 151.26749516 C32.20436516 151.26436658 35.78106782 151.2387496 39.35784912 151.21551514 C46.12924669 151.17494718 52.90054795 151.15461263 59.67204833 151.14154124 C67.38187525 151.12567383 75.09153818 151.08725937 82.80127001 151.04694796 C98.65913127 150.9645382 114.51696004 150.91045291 130.375 150.875 C126.26729929 150.46283543 122.15956026 150.05105499 118.05178738 149.63961029 C116.65819574 149.4999725 115.2646141 149.3602349 113.87104321 149.22039032 C103.89752827 148.21964065 93.92332028 147.24608662 83.9375 146.375 C82.92169861 146.28545044 82.92169861 146.28545044 81.88537598 146.1940918 C70.96967942 145.23319643 60.04723371 144.3821404 49.12014771 143.56222534 C32.87384596 142.3431715 16.66935969 140.93582056 0.46972656 139.19384766 C-2.36488463 138.90179952 -5.19906157 138.65062419 -8.0390625 138.41796875 C-8.83006348 138.34586182 -9.62106445 138.27375488 -10.43603516 138.19946289 C-12.41461277 138.01917091 -14.3947507 137.85620776 -16.375 137.6953125 C-20.67643795 136.60961302 -22.49205958 134.99861619 -25.625 131.875 C-28.37964485 123.61106545 -26.31745981 113.73749315 -25.375 105.25 C-24.01557906 92.39406837 -22.90986086 79.52580565 -21.88122559 66.63937378 C-21.37522132 60.31618872 -20.85746897 53.99395343 -20.34100342 47.6716156 C-19.96197181 43.02819768 -19.58518877 38.3846644 -19.21875 33.74023438 C-18.92614157 30.04442891 -18.61728533 26.35039386 -18.29345703 22.65719604 C-18.13037848 20.7503883 -17.98481023 18.84210808 -17.83984375 16.93383789 C-17.28842242 10.83286694 -16.87103851 6.45179876 -12.625 1.875 C-8.97019734 -1.0788816 -4.44368229 -0.25603696 0 0 Z " fill="#FDFDFE" transform="translate(59.625,206.125)"/>
<path d="M0 0 C10.55808656 -0.18451025 10.55808656 -0.18451025 15 1 C12.18925069 14.04232999 9.11083494 27.00803324 5.84594727 39.9440918 C5.31994573 42.03777133 4.79951126 44.13285673 4.28442383 46.22924805 C3.52628677 49.3136449 2.75133764 52.39339021 1.97265625 55.47265625 C1.74852554 56.39780533 1.52439484 57.32295441 1.29347229 58.27613831 C-0.28122503 64.39699548 -2.4029046 71.4029046 -7 76 C-6.00885696 76.00586624 -5.01771393 76.01173248 -3.99653625 76.01777649 C5.34681693 76.07500448 14.68993739 76.14776652 24.0330534 76.23571491 C28.83639026 76.28043091 33.63964206 76.31968435 38.44311523 76.34643555 C43.07927109 76.37245622 47.71509985 76.41284992 52.35105324 76.46318626 C54.11921938 76.47986333 55.88744211 76.49137238 57.65567589 76.49761391 C60.13367327 76.50724593 62.61083222 76.5352937 65.08862305 76.56762695 C65.81870575 76.56619186 66.54878845 76.56475677 67.30099487 76.5632782 C71.69820463 76.64435526 74.51277884 77.28216682 78 80 C80.4909283 83.73639245 80.28166637 86.63197566 80.25878906 90.95629883 C80.26404602 92.1714492 80.26404602 92.1714492 80.26940918 93.41114807 C80.2782219 96.09319595 80.27237733 98.77498061 80.265625 101.45703125 C80.26697218 103.32167105 80.26891315 105.1863105 80.27142334 107.0509491 C80.27437431 110.96246682 80.27007929 114.87389327 80.26074219 118.78540039 C80.24937137 123.79231732 80.25589225 128.79901927 80.26788712 133.80592823 C80.27512668 137.65872302 80.27280774 141.51146718 80.26763153 145.36426353 C80.2662996 147.20979526 80.26792672 149.05533161 80.27259064 150.90085793 C80.27768766 153.48586756 80.26990006 156.07053344 80.25878906 158.65551758 C80.26283752 159.41469482 80.26688599 160.17387207 80.27105713 160.95605469 C80.23634419 165.33053548 79.88494071 169.02262592 78 173 C74.31438608 175.7131163 70.06033777 175.28116279 65.68464851 175.26006222 C64.83426713 175.26386789 63.98388574 175.26767356 63.10773522 175.27159455 C60.23892776 175.28195643 57.37031648 175.27799571 54.50149536 175.27415466 C52.43166754 175.27860456 50.36184142 175.28391778 48.29201782 175.29002339 C42.5890358 175.30424338 36.88610817 175.30586592 31.18311095 175.30542648 C25.03848495 175.30707115 18.8938816 175.32013099 12.74926758 175.33161926 C0.00707582 175.35330378 -12.73509303 175.36187808 -25.47729893 175.36665427 C-26.16999923 175.36691544 -26.86269953 175.36717662 -27.57639074 175.36744571 C-28.61749638 175.36783612 -28.61749638 175.36783612 -29.67963446 175.36823442 C-37.36684001 175.3713152 -45.05404211 175.37781936 -52.74124527 175.3844471 C-75.9527183 175.40409547 -99.1641876 175.42049985 -122.37566948 175.42332363 C-123.48954019 175.42346472 -123.48954019 175.42346472 -124.62591335 175.42360866 C-127.63535044 175.42398715 -130.64478754 175.42435115 -133.65422464 175.42471164 C-135.91938544 175.42498336 -138.18454623 175.42526004 -140.44970703 175.42553711 C-141.19820196 175.42562513 -141.9466969 175.42571315 -142.71787349 175.42580384 C-166.24180286 175.42871 -189.76565011 175.45081174 -213.28955078 175.48706055 C-239.7075771 175.52776781 -266.12554746 175.55148205 -292.54360688 175.55178314 C-295.35944566 175.55187997 -298.17528443 175.55204669 -300.9911232 175.55226326 C-301.6844742 175.55230737 -302.3778252 175.55235149 -303.09218684 175.55239694 C-314.25997382 175.55351776 -325.42767865 175.57094038 -336.59543915 175.59408258 C-347.81508109 175.61690137 -359.03461319 175.62074085 -370.25427972 175.60653328 C-376.33500653 175.59934076 -382.41544811 175.60032266 -388.49614334 175.62294388 C-394.05883968 175.64344039 -399.62102983 175.64102093 -405.18372013 175.62006903 C-407.19984846 175.61655625 -409.21601263 175.62155912 -411.23209392 175.63577347 C-413.96633803 175.65381414 -416.69877835 175.64123205 -419.43296623 175.62082577 C-420.22144217 175.63338914 -421.00991811 175.64595251 -421.82228726 175.6588966 C-427.51889892 175.5674678 -430.01409987 174.07917775 -434 170 C-435.57475029 166.85049942 -435.14726536 163.4758686 -435.14526367 160.01782227 C-435.14862228 159.19329559 -435.1519809 158.36876892 -435.15544128 157.51925659 C-435.16496508 154.78495795 -435.16689508 152.05072046 -435.16796875 149.31640625 C-435.17118023 147.42073033 -435.17454421 145.52505466 -435.17805481 143.62937927 C-435.18404958 139.65224635 -435.18589434 135.67513517 -435.18530273 131.69799805 C-435.18520107 126.59548844 -435.19885651 121.49311785 -435.21607494 116.39064121 C-435.22717943 112.47449602 -435.22922242 108.5583846 -435.22869301 104.64222527 C-435.22987535 102.76071633 -435.23431126 100.87920658 -435.24202538 98.99771309 C-435.25179444 96.36889969 -435.24895954 93.74039029 -435.24291992 91.11157227 C-435.24853943 90.33068741 -435.25415894 89.54980255 -435.25994873 88.74525452 C-435.23775335 84.95418776 -435.15608204 83.23412306 -433 80 C-428.57623794 77.26517789 -425.23711225 76.62596099 -420.07723427 76.63085651 C-419.40171522 76.62739498 -418.72619618 76.62393345 -418.03020686 76.62036702 C-415.76817358 76.61243053 -413.50678182 76.62588072 -411.24478149 76.63923645 C-409.60618069 76.63792806 -407.96758051 76.63530103 -406.32898366 76.63146895 C-401.82743614 76.62475855 -397.3261026 76.63676429 -392.82458234 76.65180314 C-387.96983678 76.66475122 -383.11510342 76.66037491 -378.26034546 76.65809631 C-369.84954593 76.6565228 -361.43881619 76.66594015 -353.02803421 76.68280983 C-340.86744662 76.7071847 -328.70689279 76.71500356 -316.54628341 76.7187738 C-296.81680653 76.72534066 -277.08736684 76.74530819 -257.35791016 76.77368164 C-238.19189643 76.80121614 -219.0258928 76.82245271 -199.85986328 76.83520508 C-198.67858937 76.83599325 -197.49731547 76.83678142 -196.28024538 76.83759347 C-190.35417703 76.84150857 -184.42810861 76.8452997 -178.50204015 76.84902918 C-129.33466772 76.88013238 -80.16733567 76.93297457 -31 77 C-30.34 74.36 -29.68 71.72 -29 69 C-28.31292969 68.91363281 -27.62585938 68.82726562 -26.91796875 68.73828125 C-26.01691406 68.59777344 -25.11585938 68.45726562 -24.1875 68.3125 C-23.29417969 68.18488281 -22.40085937 68.05726563 -21.48046875 67.92578125 C-18.11770144 66.67070117 -17.62626815 65.16020722 -16 62 C-15.3238118 59.93618252 -14.72647701 57.84560169 -14.19067383 55.7409668 C-13.87056839 54.50005783 -13.55046295 53.25914886 -13.22065735 51.9806366 C-12.88260892 50.63687417 -12.54473766 49.29306717 -12.20703125 47.94921875 C-11.8532968 46.56612994 -11.4988499 45.18322315 -11.14372253 43.80049133 C-10.21437233 40.17405602 -9.29467931 36.54523965 -8.37701416 32.91583252 C-7.43753106 29.20736798 -6.48888251 25.50125063 -5.54101562 21.79492188 C-3.68506089 14.53220701 -1.83930786 7.26695075 0 0 Z " fill="#04A8E1" transform="translate(490,282)"/>
<path d="M0 0 C1.81242052 -0.02687279 3.62495233 -0.04633715 5.4375 -0.0625 C6.44683594 -0.07410156 7.45617187 -0.08570313 8.49609375 -0.09765625 C11 0 11 0 12 1 C12.45459858 3.65463121 12.70243238 6.32189138 13 9 C13.43570313 8.60167969 13.87140625 8.20335937 14.3203125 7.79296875 C20.39992667 2.38448082 25.19147881 -0.6448752 33.53515625 -0.34375 C37.63935439 0.22862629 39.70071703 1.42655929 43 4 C44.64112166 6.2741953 45.77606045 8.45420573 47 11 C47.4125 10.60167969 47.825 10.20335937 48.25 9.79296875 C53.56779094 4.91437036 58.69390636 2.00572682 66 1.5625 C70.46577722 1.75628126 74.46444722 3.26406226 78 6 C82.2568321 12.09996941 81.88122798 17.96766783 80.62481689 25.14251709 C79.63275026 30.01727556 78.44296222 34.83980309 77.2097168 39.65844727 C76.55480882 42.21755392 75.9193534 44.78091205 75.28710938 47.34570312 C74.88129911 48.97423053 74.47443776 50.60249646 74.06640625 52.23046875 C73.87470352 52.99699265 73.68300079 53.76351654 73.48548889 54.55326843 C72.11830288 59.88169712 72.11830288 59.88169712 71 61 C68.46950598 61.07313567 65.96695163 61.09247527 63.4375 61.0625 C62.72658203 61.05798828 62.01566406 61.05347656 61.28320312 61.04882812 C59.52209987 61.03700864 57.76103964 61.01907263 56 61 C56.27263672 59.8855249 56.54527344 58.7710498 56.82617188 57.62280273 C57.84060042 53.46686045 58.84445266 49.30842229 59.84521484 45.14916992 C60.27887933 43.35322977 60.71536596 41.55796854 61.15478516 39.76342773 C61.78780755 37.17607429 62.4104649 34.5864069 63.03125 31.99609375 C63.22811401 31.20101913 63.42497803 30.40594452 63.62780762 29.58677673 C64.72970562 24.93755175 65.29570744 20.78151146 65 16 C63.90536967 14.693144 63.90536967 14.693144 61.21875 14.734375 C55.5714793 15.2004119 52.58480704 18.86715592 49 23 C41.79528458 33.53121692 38.86741884 47.51038149 37 60 C35.4584364 60.02741912 33.91672526 60.04658248 32.375 60.0625 C31.51648438 60.07410156 30.65796875 60.08570313 29.7734375 60.09765625 C26.77705817 59.99214994 23.95056093 59.51554541 21 59 C21.95347223 54.79055015 22.91363391 50.58265344 23.875 46.375 C24.14441406 45.18519531 24.41382813 43.99539063 24.69140625 42.76953125 C24.95566406 41.61582031 25.21992188 40.46210938 25.4921875 39.2734375 C25.73308105 38.21560059 25.97397461 37.15776367 26.22216797 36.06787109 C27 33 27 33 28.06616211 29.82006836 C29.14301391 26.56811667 29.44956561 23.60049327 29.6875 20.1875 C29.77386719 19.04667969 29.86023438 17.90585937 29.94921875 16.73046875 C29.96597656 15.82941406 29.98273438 14.92835938 30 14 C29.505 13.505 29.505 13.505 29 13 C23.58455292 13.10830894 20.51046512 14.46214086 16.6953125 18.09765625 C9.89767463 25.72542041 7.55479313 34.27531302 5.43798828 44.02246094 C4.77167144 47.03091489 4.00890911 50.01378091 3.25 53 C2.8375 54.65 2.425 56.3 2 58 C-2.95 57.67 -7.9 57.34 -13 57 C-12.43591292 49.65225428 -11.15303618 42.85978383 -9.27734375 35.7421875 C-9.01240616 34.71312286 -8.74746857 33.68405823 -8.47450256 32.62380981 C-7.6357305 29.37237596 -6.78679971 26.12369797 -5.9375 22.875 C-5.36325581 20.65642499 -4.78968156 18.43767646 -4.21679688 16.21875 C-2.81893453 10.81047039 -1.41274645 5.40440955 0 0 Z " fill="#045DBD" transform="translate(221,268)"/>
<path d="M0 0 C1.33215554 0.33800962 2.66500481 0.67338597 4 1 C3.33871571 7.60599024 1.91698822 13.854221 0.27734375 20.28125 C0.01240616 21.33534058 -0.25253143 22.38943115 -0.52549744 23.47546387 C-1.36672522 26.81811383 -2.21450791 30.15906039 -3.0625 33.5 C-3.6365025 35.77593205 -4.21007477 38.05197266 -4.78320312 40.328125 C-6.18382615 45.8866853 -7.59032742 51.44372812 -9 57 C-12.96 57 -16.92 57 -21 57 C-21 54.03 -21 51.06 -21 48 C-21.50789063 48.40992188 -22.01578125 48.81984375 -22.5390625 49.2421875 C-23.22742188 49.78101563 -23.91578125 50.31984375 -24.625 50.875 C-25.29789062 51.40867187 -25.97078125 51.94234375 -26.6640625 52.4921875 C-33.23475325 56.73346949 -40.42639808 56.76218414 -48 56 C-52.21690837 54.15047879 -55.16101509 51.6017783 -57.30859375 47.44140625 C-60.51488148 36.11976877 -57.87205634 23.95293662 -52.375 13.875 C-47.67392438 6.51075346 -41.3293038 0.53980304 -32.98828125 -2.37890625 C-21.87117684 -4.68952011 -10.78830785 -3.08465691 0 0 Z " fill="#035CBC" transform="translate(471,282)"/>
<path d="M0 0 C1.33215554 0.33800962 2.66500481 0.67338597 4 1 C3.33871571 7.60599024 1.91698822 13.854221 0.27734375 20.28125 C0.01240616 21.33534058 -0.25253143 22.38943115 -0.52549744 23.47546387 C-1.36672522 26.81811383 -2.21450791 30.15906039 -3.0625 33.5 C-3.6365025 35.77593205 -4.21007477 38.05197266 -4.78320312 40.328125 C-6.18382615 45.8866853 -7.59032742 51.44372812 -9 57 C-12.96 57 -16.92 57 -21 57 C-21 54.03 -21 51.06 -21 48 C-21.50789063 48.40992188 -22.01578125 48.81984375 -22.5390625 49.2421875 C-23.22742188 49.78101563 -23.91578125 50.31984375 -24.625 50.875 C-25.29789062 51.40867187 -25.97078125 51.94234375 -26.6640625 52.4921875 C-33.23475325 56.73346949 -40.42639808 56.76218414 -48 56 C-52.21690837 54.15047879 -55.16101509 51.6017783 -57.30859375 47.44140625 C-60.51488148 36.11976877 -57.87205634 23.95293662 -52.375 13.875 C-47.67392438 6.51075346 -41.3293038 0.53980304 -32.98828125 -2.37890625 C-21.87117684 -4.68952011 -10.78830785 -3.08465691 0 0 Z " fill="#035CBC" transform="translate(366,276)"/>
<path d="M0 0 C1.33215554 0.33800962 2.66500481 0.67338597 4 1 C3.33871571 7.60599024 1.91698822 13.854221 0.27734375 20.28125 C0.01240616 21.33534058 -0.25253143 22.38943115 -0.52549744 23.47546387 C-1.36672522 26.81811383 -2.21450791 30.15906039 -3.0625 33.5 C-3.6365025 35.77593205 -4.21007477 38.05197266 -4.78320312 40.328125 C-6.18382615 45.8866853 -7.59032742 51.44372812 -9 57 C-12.96 57 -16.92 57 -21 57 C-21 54.03 -21 51.06 -21 48 C-21.50789063 48.40992188 -22.01578125 48.81984375 -22.5390625 49.2421875 C-23.22742188 49.78101563 -23.91578125 50.31984375 -24.625 50.875 C-25.29789063 51.40867187 -25.97078125 51.94234375 -26.6640625 52.4921875 C-33.23475325 56.73346949 -40.42639808 56.76218414 -48 56 C-52.21690837 54.15047879 -55.16101509 51.6017783 -57.30859375 47.44140625 C-60.51488148 36.11976877 -57.87205634 23.95293662 -52.375 13.875 C-47.67392438 6.51075346 -41.3293038 0.53980304 -32.98828125 -2.37890625 C-21.87117684 -4.68952011 -10.78830785 -3.08465691 0 0 Z " fill="#035CBC" transform="translate(203,268)"/>
<path d="M0 0 C4.95 0.33 9.9 0.66 15 1 C14.2175642 9.81617803 11.71847231 18.2070077 9.43945312 26.734375 C7.07975453 35.75857571 7.07975453 35.75857571 7 45 C8.89704816 47.35893223 8.89704816 47.35893223 12.125 47.0625 C18.77766888 45.84537971 23.42158975 40.25571315 27.125 34.9375 C32.6494982 25.19016619 34.87971172 12.92782696 37 2 C38.93742341 1.97296619 40.87495479 1.95358875 42.8125 1.9375 C43.89144531 1.92589844 44.97039063 1.91429687 46.08203125 1.90234375 C49 2 49 2 52 3 C51.33652506 9.58840374 49.93396826 15.83188268 48.3125 22.24609375 C47.91865112 23.8236721 47.91865112 23.8236721 47.5168457 25.43312073 C46.9643505 27.6414494 46.40954182 29.84920043 45.85253906 32.05639648 C44.99698189 35.44946961 44.15033061 38.84467841 43.3046875 42.24023438 C42.76615006 44.38815255 42.22710568 46.53594369 41.6875 48.68359375 C41.43331299 49.70327744 41.17912598 50.72296112 40.91723633 51.77354431 C40.68029053 52.70864334 40.44334473 53.64374237 40.19921875 54.60717773 C39.99127686 55.43354233 39.78333496 56.25990692 39.5690918 57.11131287 C39 59 39 59 38 60 C36.14712498 60.07226502 34.29166122 60.0838122 32.4375 60.0625 C31.42558594 60.05347656 30.41367187 60.04445313 29.37109375 60.03515625 C28.19740234 60.01775391 28.19740234 60.01775391 27 60 C26.505 55.545 26.505 55.545 26 51 C25.39671875 51.49371094 24.7934375 51.98742187 24.171875 52.49609375 C22.97304688 53.45708984 22.97304688 53.45708984 21.75 54.4375 C20.96109375 55.07558594 20.1721875 55.71367187 19.359375 56.37109375 C13.95431292 60.10273429 7.33823813 59.47515574 1 59 C-3.27421176 57.50027657 -5.68223141 55.90361026 -8 52 C-11.71044161 40.86867518 -7.31211369 28.64405713 -4.5 17.75 C-4.06511521 16.02245991 -3.63151145 14.2945968 -3.19921875 12.56640625 C-2.14753442 8.37373655 -1.07864627 4.18581051 0 0 Z " fill="#035CBC" transform="translate(518,284)"/>
<path d="M0 0 C2.65965095 2.58430126 2.99327555 3.93325821 3.37231445 7.6953125 C3.38531292 9.17182086 3.38130916 10.64854449 3.36328125 12.125 C3.36402901 13.3008667 3.36402901 13.3008667 3.36479187 14.50048828 C3.36245578 16.15464824 3.35275461 17.80881204 3.33618164 19.46289062 C3.31258205 21.99120962 3.31562488 24.51847376 3.32226562 27.046875 C3.31668862 28.65625627 3.3095786 30.26563311 3.30078125 31.875 C3.30214836 33.00639404 3.30214836 33.00639404 3.30354309 34.16064453 C3.25317859 37.89905837 3.17899648 40.87471315 1 44 C-0.8046875 45.23046875 -0.8046875 45.23046875 -2.875 46.1875 C-3.89207031 46.67283203 -3.89207031 46.67283203 -4.9296875 47.16796875 C-12.26052362 50.11413496 -19.63339395 49.69097425 -26.984375 46.9921875 C-30.62904515 45.19810568 -33.19272869 42.61454262 -35 39 C-35.12285662 36.57767707 -35.18832331 34.18517944 -35.203125 31.76171875 C-35.20882507 31.04393753 -35.21452515 30.32615631 -35.22039795 29.58662415 C-35.22984952 28.06598383 -35.23638256 26.54532301 -35.24023438 25.0246582 C-35.24991925 22.70682611 -35.2809308 20.38988875 -35.3125 18.07226562 C-35.31903237 16.59375526 -35.32428192 15.11523855 -35.328125 13.63671875 C-35.3404718 12.94696457 -35.3528186 12.25721039 -35.36553955 11.54655457 C-35.34545318 7.17032041 -34.63779036 4.49692705 -32 1 C-23.65185771 -6.7059775 -9.10414627 -6.3028705 0 0 Z " fill="#F8FCFE" transform="translate(202,383)"/>
<path d="M0 0 C1.39456452 0.00667256 2.78911118 0.01863093 4.18359375 0.03515625 C4.89451172 0.03966797 5.60542969 0.04417969 6.33789062 0.04882812 C8.09899388 0.06064761 9.86005411 0.07858362 11.62109375 0.09765625 C16.25201936 8.91612098 20.01300159 17.81970498 23.62109375 27.09765625 C23.95109375 18.18765625 24.28109375 9.27765625 24.62109375 0.09765625 C28.25109375 0.09765625 31.88109375 0.09765625 35.62109375 0.09765625 C35.62109375 17.25765625 35.62109375 34.41765625 35.62109375 52.09765625 C31.33109375 52.09765625 27.04109375 52.09765625 22.62109375 52.09765625 C17.46211184 41.26379424 13.02530783 30.2600609 8.62109375 19.09765625 C8.29109375 29.98765625 7.96109375 40.87765625 7.62109375 52.09765625 C3.66109375 52.09765625 -0.29890625 52.09765625 -4.37890625 52.09765625 C-4.40354738 44.85278576 -4.42173805 37.60793943 -4.43383789 30.36303711 C-4.43887981 27.89623592 -4.44571316 25.42943773 -4.4543457 22.96264648 C-4.4664175 19.42561096 -4.47213581 15.8886148 -4.4765625 12.3515625 C-4.48172379 11.24116104 -4.48688507 10.13075958 -4.49220276 8.98670959 C-4.49227829 7.96572678 -4.49235382 6.94474396 -4.49243164 5.89282227 C-4.49465225 4.98903336 -4.49687286 4.08524445 -4.49916077 3.15406799 C-4.29437682 -0.34783879 -3.62235191 0.10469225 0 0 Z " fill="#F6FBFD" transform="translate(105.37890625,378.90234375)"/>
<path d="M0 0 C3.63 0 7.26 0 11 0 C10.51021234 5.95908314 9.85270299 11.3183775 8 17 C8.78246094 16.98839844 9.56492188 16.97679687 10.37109375 16.96484375 C11.38300781 16.95582031 12.39492187 16.94679688 13.4375 16.9375 C14.44683594 16.92589844 15.45617187 16.91429687 16.49609375 16.90234375 C19 17 19 17 20 18 C19.9140625 19.99609375 19.9140625 19.99609375 19.625 22.4375 C19.48964844 23.64212891 19.48964844 23.64212891 19.3515625 24.87109375 C19 27 19 27 18 29 C13.38 29 8.76 29 4 29 C3.83371094 30.94519531 3.83371094 30.94519531 3.6640625 32.9296875 C3.02909551 38.66233997 1.38865438 43.94924239 -0.359375 49.42578125 C-1.85448333 54.41806827 -2.12422187 57.89359465 -1 63 C2.3 63.33 5.6 63.66 9 64 C8.34 67.63 7.68 71.26 7 75 C0.95327678 77.01557441 -6.67234304 77.26372896 -12.6640625 74.98828125 C-16.10390066 72.9056156 -17.70035339 71.89893982 -19 68 C-19.25818861 62.44014293 -18.68136472 57.60646743 -17.25 52.21875 C-17.07243164 51.51979614 -16.89486328 50.82084229 -16.71191406 50.10070801 C-16.15017979 47.89807288 -15.57535992 45.69911055 -15 43.5 C-14.61370784 41.99501611 -14.22828317 40.48980928 -13.84375 38.984375 C-12.90583038 35.3202659 -11.95617057 31.65938684 -11 28 C-13.64 28 -16.28 28 -19 28 C-18.34 24.04 -17.68 20.08 -17 16 C-13.7 16 -10.4 16 -7 16 C-6.6596875 14.824375 -6.6596875 14.824375 -6.3125 13.625 C-4.58675424 8.85865456 -2.31570486 4.50953051 0 0 Z " fill="#065EBD" transform="translate(128,247)"/>
<path d="M0 0 C0.74886475 0.00523682 1.49772949 0.01047363 2.26928711 0.01586914 C3.07817383 0.0190918 3.88706055 0.02231445 4.72045898 0.02563477 C5.5705957 0.03401367 6.42073242 0.04239258 7.29663086 0.05102539 C8.15063477 0.05553711 9.00463867 0.06004883 9.88452148 0.06469727 C12.00108749 0.07652166 14.11761771 0.0944577 16.23413086 0.11352539 C18.59799125 6.82000084 20.46971043 13.58685201 22.17163086 20.48852539 C22.42960449 21.5262207 22.68757813 22.56391602 22.95336914 23.63305664 C25.27619608 33.08047224 27.32201241 42.57542864 29.23413086 52.11352539 C24.94413086 52.11352539 20.65413086 52.11352539 16.23413086 52.11352539 C15.57413086 49.14352539 14.91413086 46.17352539 14.23413086 43.11352539 C9.28413086 43.44352539 4.33413086 43.77352539 -0.76586914 44.11352539 C-1.42586914 46.75352539 -2.08586914 49.39352539 -2.76586914 52.11352539 C-6.72586914 52.11352539 -10.68586914 52.11352539 -14.76586914 52.11352539 C-12.38984133 39.98327815 -9.56532601 27.98035715 -6.57836914 15.98852539 C-6.39838379 15.26109131 -6.21839844 14.53365723 -6.03295898 13.78417969 C-5.51701823 11.70281178 -4.99592526 9.62281056 -4.47290039 7.54321289 C-4.16843994 6.32875488 -3.86397949 5.11429687 -3.55029297 3.86303711 C-2.49392697 0.16033127 -2.49392697 0.16033127 0 0 Z " fill="#F8FCFE" transform="translate(441.765869140625,378.886474609375)"/>
<path d="M0 0 C10.55808656 -0.18451025 10.55808656 -0.18451025 15 1 C12.18925069 14.04232999 9.11083494 27.00803324 5.84594727 39.9440918 C5.31994573 42.03777133 4.79951126 44.13285673 4.28442383 46.22924805 C3.52628677 49.3136449 2.75133764 52.39339021 1.97265625 55.47265625 C1.63646019 56.86037987 1.63646019 56.86037987 1.29347229 58.27613831 C-0.24677395 64.26308395 -2.23228839 70.01549747 -6 75 C-7.485 75.495 -7.485 75.495 -9 76 C-9 76.66 -9 77.32 -9 78 C-13.15491324 81.36973279 -17.12439976 81.39749929 -22.25 81.25 C-22.9821875 81.24484375 -23.714375 81.2396875 -24.46875 81.234375 C-29.84527726 81.15472274 -29.84527726 81.15472274 -31 80 C-30.57579749 76.25287781 -29.94957457 72.64540068 -29 69 C-28.31292969 68.91363281 -27.62585938 68.82726562 -26.91796875 68.73828125 C-26.01691406 68.59777344 -25.11585938 68.45726562 -24.1875 68.3125 C-23.29417969 68.18488281 -22.40085937 68.05726563 -21.48046875 67.92578125 C-18.11770144 66.67070117 -17.62626815 65.16020722 -16 62 C-15.3238118 59.93618252 -14.72647701 57.84560169 -14.19067383 55.7409668 C-13.87056839 54.50005783 -13.55046295 53.25914886 -13.22065735 51.9806366 C-12.88260892 50.63687417 -12.54473766 49.29306717 -12.20703125 47.94921875 C-11.8532968 46.56612994 -11.4988499 45.18322315 -11.14372253 43.80049133 C-10.21437233 40.17405602 -9.29467931 36.54523965 -8.37701416 32.91583252 C-7.43753106 29.20736798 -6.48888251 25.50125063 -5.54101562 21.79492188 C-3.68506089 14.53220701 -1.83930786 7.26695075 0 0 Z " fill="#025CBC" transform="translate(490,282)"/>
<path d="M0 0 C5.28 0 10.56 0 16 0 C15.29836373 8.05192587 13.19248416 15.77279206 11.21875 23.5859375 C10.84108673 25.09420307 10.46377305 26.60255621 10.08679199 28.11099243 C9.29954561 31.25686384 8.50916338 34.40192421 7.71630859 37.54638672 C6.69928075 41.58035525 5.68853339 45.61586446 4.67989349 49.65193748 C3.90285097 52.75956469 3.12336084 55.86657354 2.34303284 58.97337723 C1.96928008 60.46202065 1.59609854 61.95080762 1.22349548 63.43973923 C0.70409874 65.5130024 0.18161445 67.58546208 -0.34179688 69.65771484 C-0.63856323 70.83715668 -0.93532959 72.01659851 -1.24108887 73.23178101 C-2 76 -2 76 -3 78 C-5.29160319 78.02692484 -7.58329546 78.04636124 -9.875 78.0625 C-11.15117188 78.07410156 -12.42734375 78.08570313 -13.7421875 78.09765625 C-17 78 -17 78 -19 77 C-17.5562533 68.21674982 -15.51252447 59.62350675 -13.33984375 50.99609375 C-12.9861331 49.58177102 -12.63266773 48.16738692 -12.2794342 46.75294495 C-11.54454933 43.81349444 -10.80726791 40.87465945 -10.06811523 37.9362793 C-9.12029735 34.16787515 -8.17778949 30.39816698 -7.23692989 26.62802029 C-6.51040447 23.71858434 -5.78154021 20.80973848 -5.05191231 17.90107918 C-4.7032154 16.51013956 -4.35515227 15.11904091 -4.0077343 13.7277813 C-3.52432368 11.79376913 -3.0375145 9.86060738 -2.55053711 7.92749023 C-2.27455185 6.82815659 -1.99856659 5.72882294 -1.71421814 4.59617615 C-1 2 -1 2 0 0 Z " fill="#085FBD" transform="translate(93,241)"/>
<path d="M0 0 C3.25967631 2.31938507 4.83532602 3.59898079 6.25 7.3125 C6.25 9.2925 6.25 11.2725 6.25 13.3125 C2.29 13.3125 -1.67 13.3125 -5.75 13.3125 C-6.41 11.3325 -7.07 9.3525 -7.75 7.3125 C-10.72 7.3125 -13.69 7.3125 -16.75 7.3125 C-17.25196294 10.60176495 -17.25196294 10.60176495 -16.75 14.3125 C-13.38574379 17.94953374 -9.3881698 20.15580257 -5.1875 22.75 C-0.12794237 25.90275836 3.54103796 28.89457593 6.25 34.3125 C6.73462785 39.15877846 6.79681148 41.34646638 4.375 45.625 C0.00858187 50.16459052 -6.6534155 51.39070887 -12.75 51.6875 C-18.76035644 51.40652805 -24.69258928 50.06882622 -29.3125 46.125 C-31.22339849 42.38628557 -31.54033896 39.50572081 -31.75 35.3125 C-30.75 34.3125 -30.75 34.3125 -28.24609375 34.21484375 C-27.23675781 34.22644531 -26.22742188 34.23804688 -25.1875 34.25 C-24.17558594 34.25902344 -23.16367187 34.26804687 -22.12109375 34.27734375 C-20.94740234 34.29474609 -20.94740234 34.29474609 -19.75 34.3125 C-18.76 36.9525 -17.77 39.5925 -16.75 42.3125 C-12.09947128 42.58182521 -12.09947128 42.58182521 -7.75 41.3125 C-7.16223366 38.5678656 -7.16223366 38.5678656 -7.75 35.3125 C-11.65503478 30.35310583 -17.85620328 27.27249043 -23.19921875 24.12109375 C-26.56280659 21.7361915 -28.90511093 19.00227814 -30.75 15.3125 C-31.27954417 10.89384453 -31.33712449 7.39280907 -29.1875 3.4375 C-21.51926292 -3.24762976 -9.26465217 -4.22839413 0 0 Z " fill="#F5FBFD" transform="translate(524.75,380.6875)"/>
<path d="M0 0 C3.95449323 2.23839239 5.46490946 3.71792128 7.3125 7.875 C7.61504529 10.96096195 7.50128291 13.76008202 7.3125 16.875 C3.3525 16.875 -0.6075 16.875 -4.6875 16.875 C-4.91536458 14.82421875 -5.14322917 12.7734375 -5.37109375 10.72265625 C-5.50636614 8.86359771 -5.50636614 8.86359771 -6.6875 7.875 C-8.18488124 7.7770943 -9.68692892 7.74525136 -11.1875 7.75 C-12.0021875 7.74742187 -12.816875 7.74484375 -13.65625 7.7421875 C-15.68280377 7.6504822 -15.68280377 7.6504822 -16.6875 8.875 C-16.77597743 11.39594076 -16.80277301 13.88930893 -16.78515625 16.41015625 C-16.78303383 17.54003212 -16.78303383 17.54003212 -16.78086853 18.69273376 C-16.77525376 21.1076956 -16.76269883 23.52256601 -16.75 25.9375 C-16.7449869 27.57096221 -16.74042366 29.20442586 -16.73632812 30.83789062 C-16.72527954 34.85029585 -16.70800506 38.86263241 -16.6875 42.875 C-13.0575 42.875 -9.4275 42.875 -5.6875 42.875 C-5.3575 39.245 -5.0275 35.615 -4.6875 31.875 C-0.7275 31.875 3.2325 31.875 7.3125 31.875 C7.91468978 41.75091241 7.91468978 41.75091241 5.4375 46.375 C1.00853145 50.71614198 -5.67344732 51.95722664 -11.6875 52.25 C-17.81827441 51.96339876 -23.84942159 50.71307841 -28.25 46.3125 C-30.64786173 42.24656055 -30.86223987 39.28417883 -30.890625 34.63671875 C-30.89632507 33.91893753 -30.90202515 33.20115631 -30.90789795 32.46162415 C-30.91734952 30.94098383 -30.92388256 29.42032301 -30.92773438 27.8996582 C-30.93741925 25.58182611 -30.9684308 23.26488875 -31 20.94726562 C-31.00653237 19.46875526 -31.01178192 17.99023855 -31.015625 16.51171875 C-31.0279718 15.82196457 -31.0403186 15.13221039 -31.05303955 14.42155457 C-31.03295647 10.04603748 -30.32939537 7.36900521 -27.6875 3.875 C-20.45867465 -2.63094281 -9.14499674 -2.94441183 0 0 Z " fill="#F7FCFD" transform="translate(358.6875,380.125)"/>
<path d="M0 0 C1.81242052 -0.02687279 3.62495233 -0.04633715 5.4375 -0.0625 C6.44683594 -0.07410156 7.45617187 -0.08570313 8.49609375 -0.09765625 C11 0 11 0 12 1 C12.36760731 3.32817964 12.70241581 5.6618385 13 8 C13.45890625 7.59007812 13.9178125 7.18015625 14.390625 6.7578125 C15.00421875 6.21898437 15.6178125 5.68015625 16.25 5.125 C16.85328125 4.59132813 17.4565625 4.05765625 18.078125 3.5078125 C22.01663267 0.4178451 24.73284995 -0.24445595 29.75 -0.125 C30.73484375 -0.10695313 31.7196875 -0.08890625 32.734375 -0.0703125 C33.85585938 -0.03550781 33.85585938 -0.03550781 35 0 C31.92482916 10.55808656 31.92482916 10.55808656 30 15 C29.43152344 15.00257813 28.86304688 15.00515625 28.27734375 15.0078125 C22.9876651 15.27273797 19.51581261 16.15327816 15.73461914 19.96606445 C9.25282421 27.56632252 6.67776227 36.61355136 4.625 46.1875 C4.36589844 47.33025391 4.10679687 48.47300781 3.83984375 49.65039062 C3.2117497 52.43028836 2.60372942 55.2147093 2 58 C-2.95 57.67 -7.9 57.34 -13 57 C-12.43591292 49.65225428 -11.15303618 42.85978383 -9.27734375 35.7421875 C-9.01240616 34.71312286 -8.74746857 33.68405823 -8.47450256 32.62380981 C-7.6357305 29.37237596 -6.78679971 26.12369797 -5.9375 22.875 C-5.36325581 20.65642499 -4.78968156 18.43767646 -4.21679688 16.21875 C-2.81893453 10.81047039 -1.41274645 5.40440955 0 0 Z " fill="#075EBD" transform="translate(383,277)"/>
<path d="M0 0 C12.87 0 25.74 0 39 0 C39 2.64 39 5.28 39 8 C34.71 8 30.42 8 26 8 C26 22.52 26 37.04 26 52 C21.71 52 17.42 52 13 52 C13 37.48 13 22.96 13 8 C8.71 8 4.42 8 0 8 C0 5.36 0 2.72 0 0 Z " fill="#F4FAFD" transform="translate(228,379)"/>
<path d="M0 0 C1.06927734 0.48339844 1.06927734 0.48339844 2.16015625 0.9765625 C-0.05880463 11.95457949 -3.72188744 24.24540484 -12.8046875 31.55859375 C-19.77412852 35.90586884 -19.77412852 35.90586884 -23.83984375 34.9765625 C-26.34465485 33.09795417 -26.82685 32.01554376 -27.83984375 28.9765625 C-28.5111292 19.4107449 -25.88994888 10.50018894 -19.83984375 2.9765625 C-14.36073707 -2.24163434 -6.94919027 -2.50438494 0 0 Z " fill="#F9FAFD" transform="translate(455.83984375,292.0234375)"/>
<path d="M0 0 C1.06927734 0.48339844 1.06927734 0.48339844 2.16015625 0.9765625 C-0.05880463 11.95457949 -3.72188744 24.24540484 -12.8046875 31.55859375 C-19.77412852 35.90586884 -19.77412852 35.90586884 -23.83984375 34.9765625 C-26.34465485 33.09795417 -26.82685 32.01554376 -27.83984375 28.9765625 C-28.5111292 19.4107449 -25.88994888 10.50018894 -19.83984375 2.9765625 C-14.36073707 -2.24163434 -6.94919027 -2.50438494 0 0 Z " fill="#F9FAFD" transform="translate(350.83984375,286.0234375)"/>
<path d="M0 0 C1.06927734 0.48339844 1.06927734 0.48339844 2.16015625 0.9765625 C-0.05880463 11.95457949 -3.72188744 24.24540484 -12.8046875 31.55859375 C-19.77412852 35.90586884 -19.77412852 35.90586884 -23.83984375 34.9765625 C-26.34465485 33.09795417 -26.82685 32.01554376 -27.83984375 28.9765625 C-28.5111292 19.4107449 -25.88994888 10.50018894 -19.83984375 2.9765625 C-14.36073707 -2.24163434 -6.94919027 -2.50438494 0 0 Z " fill="#F9FAFD" transform="translate(187.83984375,278.0234375)"/>
<path d="M0 0 C4.29 0 8.58 0 13 0 C13 17.16 13 34.32 13 52 C8.71 52 4.42 52 0 52 C0 34.84 0 17.68 0 0 Z " fill="#F5FBFD" transform="translate(289,379)"/>
<path d="M0 0 C3.96 0 7.92 0 12 0 C12 17.16 12 34.32 12 52 C7.71 52 3.42 52 -1 52 C-1.02464113 44.75512951 -1.0428318 37.51028318 -1.05493164 30.26538086 C-1.05997356 27.79857967 -1.06680691 25.33178148 -1.07543945 22.86499023 C-1.08751125 19.32795471 -1.09322956 15.79095855 -1.09765625 12.25390625 C-1.10281754 11.14350479 -1.10797882 10.03310333 -1.11329651 8.88905334 C-1.11337204 7.86807053 -1.11344757 6.84708771 -1.11352539 5.79516602 C-1.115746 4.89137711 -1.11796661 3.9875882 -1.12025452 3.05641174 C-1 1 -1 1 0 0 Z " fill="#F4FBFD" transform="translate(392,379)"/>
<path d="M0 0 C1.21816406 0.03480469 1.21816406 0.03480469 2.4609375 0.0703125 C3.68683594 0.09738281 3.68683594 0.09738281 4.9375 0.125 C5.87722656 0.15980469 5.87722656 0.15980469 6.8359375 0.1953125 C10.02086731 5.29801543 9.16995851 11.34583239 9.15161133 17.1496582 C9.14844235 19.25459142 9.17196034 21.35813008 9.19726562 23.46289062 C9.19953793 24.80208156 9.20024243 26.14127627 9.19921875 27.48046875 C9.20369019 29.30396851 9.20369019 29.30396851 9.20825195 31.16430664 C8.8359375 34.1953125 8.8359375 34.1953125 7.53198242 36.09155273 C4.66565658 37.9569132 2.13844395 37.54915248 -1.1640625 37.1953125 C-2.86010742 36.12329102 -2.86010742 36.12329102 -4.1640625 34.1953125 C-4.53637695 30.94897461 -4.53637695 30.94897461 -4.52734375 26.97265625 C-4.52784225 26.271371 -4.52834076 25.57008575 -4.52885437 24.84754944 C-4.5265167 23.36733156 -4.51680613 21.88710949 -4.50024414 20.40698242 C-4.47661129 18.13749815 -4.47968978 15.86918574 -4.48632812 13.59960938 C-4.43515549 0.40028479 -4.43515549 0.40028479 0 0 Z " fill="#03A9E1" transform="translate(184.1640625,386.8046875)"/>
<path d="M0 0 C2.0625 1.5625 2.0625 1.5625 3 4 C3.62388198 8.91307062 3.75777063 10.86334406 1 15 C-3.15562097 17.77041398 -5.06667872 17.70476018 -10 17 C-12.67534259 15.35363533 -13.64490252 14.11171041 -14.59765625 11.12890625 C-15.36223291 7.20209993 -15.34390221 5.55735876 -13.1875 2.0625 C-9.01713076 -1.86956243 -5.35958526 -1.23682737 0 0 Z " fill="#055DBD" transform="translate(508,256)"/>
<path d="M0 0 C1.75367237 2.63050855 2.38191404 3.93074977 3.0703125 6.87109375 C3.24433594 7.61037109 3.41835938 8.34964844 3.59765625 9.11132812 C3.77167969 9.87896484 3.94570313 10.64660156 4.125 11.4375 C4.30675781 12.20126953 4.48851562 12.96503906 4.67578125 13.75195312 C5.50770462 17.34548677 6 20.26380645 6 24 C2.37 24 -1.26 24 -5 24 C-4.41640925 15.68383188 -2.26200586 7.98540674 0 0 Z " fill="#0BACE2" transform="translate(448,391)"/>
<path d="M0 0 C1.09054687 0.02320313 2.18109375 0.04640625 3.3046875 0.0703125 C4.40039062 0.08835937 5.49609375 0.10640625 6.625 0.125 C7.46804688 0.14820313 8.31109375 0.17140625 9.1796875 0.1953125 C0.9498964 8.90920896 0.9498964 8.90920896 -4.203125 9.44140625 C-6.42400353 9.44488725 -8.60705644 9.37237298 -10.8203125 9.1953125 C-9.86301334 8.06943236 -8.90443355 6.944641 -7.9453125 5.8203125 C-7.41164063 5.19382812 -6.87796875 4.56734375 -6.328125 3.921875 C-3.09001739 0.21399012 -3.09001739 0.21399012 0 0 Z " fill="#EBF7FC" transform="translate(299.8203125,367.8046875)"/>
</svg>
