<?xml version="1.0" standalone="no"?>
<!DOCTYPE svg PUBLIC "-//W3C//DTD SVG 20010904//EN"
 "http://www.w3.org/TR/2001/REC-SVG-20010904/DTD/svg10.dtd">
<svg version="1.0" xmlns="http://www.w3.org/2000/svg"
 width="640.000000pt" height="640.000000pt" viewBox="0 0 640.000000 640.000000"
 preserveAspectRatio="xMidYMid meet">

<g transform="translate(0.000000,640.000000) scale(0.100000,-0.100000)"
fill="#000000" stroke="none">
<path d="M790 5290 c0 -13 -10 -24 -25 -30 -14 -5 -25 -12 -25 -14 0 -3 8 -2
18 1 15 6 15 5 3 -10 -7 -9 -19 -17 -27 -17 -16 0 -139 -161 -227 -297 -202
-311 -358 -684 -437 -1048 -82 -378 -93 -809 -29 -1185 226 -1346 1280 -2408
2614 -2635 212 -36 351 -44 665 -35 306 8 409 22 675 90 348 88 720 259 1022
467 431 297 806 731 1046 1208 241 482 363 1074 329 1601 -37 567 -214 1098
-521 1562 -90 135 -216 302 -227 302 -3 0 -2 -5 2 -12 4 -7 3 -8 -4 -4 -7 4
-12 15 -12 25 0 10 -8 25 -18 34 -17 16 -197 17 -2420 17 -2402 0 -2402 0
-2402 -20z m2500 -1185 c1482 -129 2706 -238 2719 -241 13 -3 36 -18 52 -34
24 -23 29 -37 29 -76 0 -80 -100 -1172 -109 -1198 -5 -13 -22 -33 -38 -46 -26
-21 -34 -22 -130 -16 l-102 7 -3 -300 -3 -301 -28 -27 -27 -28 -935 -3 c-827
-2 -936 -1 -941 13 -3 8 -9 13 -13 10 -4 -2 -8 3 -8 11 0 8 5 13 12 11 6 -3
11 4 11 14 0 11 -4 19 -9 19 -5 0 -6 14 -2 30 4 20 3 30 -5 30 -8 0 -9 4 -3
13 5 6 8 22 7 35 -1 13 7 29 20 37 24 17 14 20 -15 4 -18 -9 -19 -8 -7 10 7
12 17 21 22 21 6 0 1 7 -10 16 -10 8 -13 12 -5 8 10 -5 11 -1 6 16 -4 13 -3
20 2 17 5 -4 10 0 10 8 0 8 -3 13 -6 10 -8 -9 -31 77 -23 89 3 6 7 18 7 26 0
8 7 14 15 12 9 -1 7 5 -7 17 -13 11 -23 22 -23 25 0 9 24 2 32 -9 17 -23 6 22
-12 50 -11 16 -16 34 -11 40 5 5 12 21 16 34 6 20 4 23 -10 18 -11 -5 -15 -3
-12 5 2 7 11 12 20 12 13 -1 14 2 4 17 -8 13 -13 15 -19 6 -4 -7 -6 -3 -5 10
0 12 5 19 9 17 12 -8 9 11 -4 24 -9 9 -9 12 0 12 7 0 12 12 13 28 0 24 1 25 9
7 8 -18 9 -18 9 -2 1 10 -6 20 -14 23 -8 4 -12 10 -9 15 3 5 0 9 -5 9 -16 0
-13 27 5 56 12 17 13 24 4 22 -7 -2 -15 3 -18 11 -3 8 0 11 7 7 6 -4 11 -1 11
6 0 9 3 9 10 -2 5 -8 10 -10 10 -4 0 6 -3 14 -7 18 -4 4 -8 15 -8 24 0 16 -66
17 -905 22 l-905 5 -770 69 c-453 40 -783 74 -802 82 -21 8 -39 26 -50 49 -17
35 -16 55 30 593 61 707 53 650 93 690 27 27 39 32 80 32 27 0 1261 -106 2744
-235z m-200 -1392 c0 -5 -25 -25 -55 -46 -47 -33 -61 -38 -99 -35 l-45 3 35
43 c35 41 37 42 100 42 35 0 64 -3 64 -7z m-1855 -249 l60 -146 3 146 3 146
54 0 55 0 0 -260 0 -261 -67 3 -67 3 -70 170 -71 170 -3 -173 -2 -172 -60 0
-60 0 0 260 0 260 83 0 82 0 60 -146z m751 126 c65 -32 74 -60 74 -242 0 -178
-10 -211 -73 -241 -86 -42 -235 -27 -287 28 -24 26 -25 32 -28 195 -4 199 4
226 71 259 59 29 183 29 243 1z m684 -20 l0 -40 -65 0 -65 0 0 -220 0 -220
-65 0 -65 0 0 220 0 220 -70 0 -70 0 0 33 c0 19 3 37 7 40 3 4 93 7 200 7
l193 0 0 -40z m350 -220 l0 -260 -65 0 -65 0 0 260 0 260 65 0 65 0 0 -260z
m564 246 c51 -21 76 -60 76 -117 l0 -49 -60 0 c-59 0 -60 0 -60 28 0 44 -26
72 -65 72 -59 0 -67 -24 -63 -194 3 -160 7 -170 63 -170 46 0 57 13 63 73 l5
51 58 0 59 0 0 -66 c0 -59 -3 -69 -28 -94 -71 -71 -257 -67 -322 7 l-30 34 0
170 c0 193 6 216 68 248 46 25 184 29 236 7z"/>
<path d="M839 3607 l-96 -384 76 -6 c41 -3 76 -5 77 -4 0 1 44 174 96 385 l96
382 -33 0 c-18 0 -52 3 -76 6 l-44 6 -96 -385z"/>
<path d="M1248 3849 l-43 -83 -44 -1 c-48 0 -44 4 -65 -77 -6 -27 -5 -28 34
-28 29 0 40 -4 40 -15 0 -9 -18 -87 -40 -175 -43 -170 -46 -196 -29 -233 19
-43 58 -57 157 -57 l90 0 6 36 c4 19 9 41 12 48 4 9 -10 15 -46 20 -79 11 -81
23 -34 208 l39 153 66 -3 66 -4 6 30 c3 16 9 41 13 56 6 25 5 26 -37 26 -24 0
-54 3 -65 6 l-22 6 20 75 c10 41 18 77 16 78 -2 2 -24 6 -50 10 l-46 7 -44
-83z"/>
<path d="M4978 3835 c-15 -8 -31 -30 -37 -48 -31 -92 72 -155 140 -88 76 76
-8 187 -103 136z"/>
<path d="M1732 3740 c-171 -36 -294 -216 -280 -411 9 -116 62 -169 170 -169
61 0 139 33 177 74 34 37 40 33 30 -21 -5 -25 -8 -47 -7 -48 2 -2 28 -5 59 -7
l55 -4 68 273 c38 151 67 275 65 277 -2 2 -35 11 -74 19 -92 21 -209 28 -263
17z m166 -125 c11 -11 -46 -174 -79 -225 -40 -63 -114 -120 -154 -120 -55 0
-77 78 -51 181 36 141 111 198 231 176 28 -5 51 -10 53 -12z"/>
<path d="M2147 3439 c-38 -154 -67 -282 -65 -283 1 -2 33 -6 70 -9 l68 -5 9
37 c69 266 85 304 162 376 34 32 57 45 77 45 66 0 67 -37 7 -270 -25 -96 -45
-181 -45 -188 0 -10 18 -12 72 -10 l71 3 33 128 c18 70 45 150 60 178 31 56
114 138 141 140 78 5 81 -28 18 -266 -25 -93 -45 -178 -45 -188 0 -16 8 -18
72 -15 l72 3 48 190 c51 208 56 254 32 315 -21 51 -61 73 -134 74 -64 0 -118
-23 -166 -71 l-33 -32 -11 34 c-6 19 -25 46 -41 60 -26 21 -41 25 -95 25 -73
0 -105 -13 -166 -68 l-41 -37 7 53 7 52 -45 0 c-24 0 -50 2 -58 5 -10 4 -30
-65 -81 -276z"/>
<path d="M3362 3660 c-171 -36 -294 -216 -280 -411 9 -116 62 -169 170 -169
61 0 139 33 177 74 34 37 40 33 30 -21 -5 -25 -8 -47 -7 -48 2 -2 28 -5 59 -7
l55 -4 68 273 c38 151 67 275 65 277 -2 2 -35 11 -74 19 -92 21 -209 28 -263
17z m166 -125 c11 -11 -46 -174 -79 -225 -40 -63 -114 -120 -154 -120 -55 0
-77 78 -51 181 36 141 111 198 231 176 28 -5 51 -10 53 -12z"/>
<path d="M3767 3349 c-38 -154 -67 -282 -65 -283 1 -2 33 -6 70 -9 l68 -5 9
37 c65 251 74 273 135 339 42 45 78 63 114 56 28 -6 30 -4 54 63 l26 68 -30 6
c-59 13 -128 -16 -180 -75 l-27 -31 -1 53 0 52 -39 0 c-22 0 -45 2 -53 5 -10
4 -30 -65 -81 -276z"/>
<path d="M4412 3600 c-171 -36 -294 -216 -280 -411 9 -116 62 -169 170 -169
61 0 139 33 177 74 34 37 40 33 30 -21 -5 -25 -8 -47 -7 -48 2 -2 28 -5 59 -7
l55 -4 68 273 c38 151 67 275 65 277 -2 2 -35 11 -74 19 -92 21 -209 28 -263
17z m166 -125 c11 -11 -46 -174 -79 -225 -40 -63 -114 -120 -154 -120 -55 0
-77 78 -51 181 36 141 111 198 231 176 28 -5 51 -10 53 -12z"/>
<path d="M4830 3285 c-39 -159 -77 -309 -86 -333 -17 -46 -41 -62 -97 -62 -30
0 -33 -4 -50 -56 -10 -31 -16 -59 -13 -61 2 -3 32 -7 65 -10 104 -10 172 30
224 133 9 18 50 168 92 335 42 167 78 312 81 321 4 14 -6 17 -70 20 l-76 3
-70 -290z"/>
<path d="M5184 3545 c-24 -70 -94 -386 -94 -422 0 -99 56 -153 158 -153 64 0
111 19 170 67 l45 37 -7 -51 -6 -51 52 -4 c29 -3 56 -2 59 1 8 8 143 551 138
555 -2 2 -35 6 -73 8 l-69 3 -33 -126 c-37 -146 -69 -214 -125 -270 -58 -58
-112 -75 -143 -43 -24 23 -20 59 29 254 25 99 45 184 45 189 0 13 -142 19
-146 6z"/>
<path d="M3781 2704 c0 -11 3 -14 6 -6 3 7 2 16 -1 19 -3 4 -6 -2 -5 -13z"/>
<path d="M3765 2420 c-3 -5 1 -10 10 -10 9 0 13 5 10 10 -3 6 -8 10 -10 10 -2
0 -7 -4 -10 -10z"/>
<path d="M3773 2012 c0 -12 5 -22 9 -22 11 0 10 12 -2 30 -7 12 -9 10 -7 -8z"/>
<path d="M1810 2504 c-6 -14 -10 -88 -10 -165 0 -126 2 -141 20 -159 22 -22
51 -26 81 -10 18 10 19 23 19 179 0 186 2 181 -66 181 -28 0 -36 -5 -44 -26z"/>
</g>
</svg>
