<svg width="48" height="48" viewBox="0 0 48 48" fill="none" xmlns="http://www.w3.org/2000/svg">
<circle cx="24" cy="24" r="24" fill="#25D366"/>
<path d="M21.7252 11.1549C17.0383 12.0033 13.1426 15.3794 11.672 19.861C11.1904 21.3519 11.1044 21.9175 11.1044 23.8798C11.1044 25.2936 11.1388 25.8335 11.2592 26.4076C11.4828 27.4444 11.9386 28.7469 12.3772 29.6295L12.7556 30.3921L11.8526 33.674C11.3624 35.4735 10.9754 36.9731 11.0012 36.9988C11.0184 37.0245 12.5492 36.6474 14.3982 36.1676L17.7521 35.2935L18.6379 35.6877C20.6073 36.5446 21.8886 36.8102 24.0902 36.8102C26.2746 36.8017 27.6677 36.4932 29.6285 35.5678C37.0932 32.0545 39.3549 22.4316 34.2466 15.9193C32.4234 13.5971 29.8607 11.9776 26.8851 11.2663C25.6124 10.9664 23.0582 10.9064 21.7252 11.1549ZM25.8188 13.2543C29.8005 13.9398 33.1028 16.7676 34.3154 20.5379C35.5366 24.3339 34.625 28.4041 31.9075 31.2833C30.3509 32.9285 28.2697 34.0768 26.051 34.5223C25.1394 34.7023 22.9894 34.7194 22.1638 34.5566C21.0716 34.3424 20.1085 34.0168 19.0937 33.5112L18.0531 32.9885L16.0493 33.5112C14.9486 33.8026 14.037 34.0253 14.0198 34.0168C14.0112 33.9996 14.2434 33.1085 14.5444 32.0288L15.0861 30.0665L14.6648 29.3382C14.123 28.387 13.7618 27.5216 13.4952 26.5019C13.2028 25.3965 13.1254 23.3228 13.3318 22.1574C13.736 19.8352 14.7164 17.9587 16.3847 16.2963C18.0445 14.6511 19.9279 13.6571 22.138 13.2629C23.041 13.1001 24.8814 13.0915 25.8188 13.2543Z" fill="white"/>
<path d="M19.6899 18.3074C19.3067 18.4898 18.6473 19.3064 18.4067 19.8972C18.1216 20.6009 18.1305 21.7997 18.4156 22.6598C18.8166 23.8587 20.0553 25.5701 21.588 27.0644C23.2098 28.6368 24.5464 29.4535 26.7029 30.1571C27.7544 30.496 27.8613 30.5133 28.6722 30.4786C29.4297 30.4525 29.6079 30.4091 30.1425 30.1571C30.8643 29.8096 31.4525 29.2623 31.6129 28.7932C31.6841 28.6108 31.7376 28.2024 31.7376 27.8897L31.7465 27.325L30.7663 26.8298C29.3316 26.1001 28.5207 25.7786 28.3425 25.8742C28.2712 25.9176 27.9148 26.2999 27.5673 26.7256C27.095 27.2989 26.8633 27.5074 26.6851 27.5248C26.3821 27.5596 25.0009 26.8906 24.2167 26.3259C23.887 26.0827 23.3523 25.6223 23.0405 25.3008C22.5058 24.7535 21.7305 23.6936 21.6058 23.3548C21.5701 23.2592 21.6771 23.0507 21.9266 22.7554C22.4256 22.1646 22.7018 21.7216 22.7018 21.4957C22.7018 21.2351 21.5612 18.5854 21.3385 18.3508C21.187 18.1944 21.0622 18.1597 20.5721 18.1597C20.2157 18.1597 19.8681 18.2205 19.6899 18.3074Z" fill="white"/>
</svg>
